<svg width="22" height="22" viewBox="0 0 22 22" fill="none" xmlns="http://www.w3.org/2000/svg">
<mask id="path-1-outside-1_8_200" maskUnits="userSpaceOnUse" x="0" y="0" width="22" height="22" fill="black">
<rect fill="white" width="22" height="22"/>
<path fill-rule="evenodd" clip-rule="evenodd" d="M3.24744 11C3.24933 10.9371 3.2388 10.8725 3.21159 10.8115C3.05867 10.469 2.5841 10.5005 2.09519 10.5005C2.09519 10.4708 2.09576 10.4398 2.09676 10.4078C2.10291 10.3073 2.12426 10.1497 2.13273 10.0692C2.23642 9.08079 2.47953 8.12977 2.91258 7.25583C2.99741 7.08855 3.05204 7.00166 3.0959 6.96094C3.15604 6.92466 3.2115 6.99067 3.3823 7.01254C3.64596 7.04628 3.80979 6.89247 3.7998 6.68768C3.81007 6.44092 3.58278 6.30854 3.48194 6.15799C3.52324 6.09635 3.5659 6.03721 3.60976 5.97889C4.07537 5.40039 4.15262 5.24614 4.76285 4.62387C4.79474 4.59365 4.82511 4.56725 4.87173 4.53006C4.93589 4.47892 4.97562 4.42526 5.0367 4.36878L5.06262 4.34508C5.22266 4.21026 5.38281 4.07427 5.54586 3.94194C5.77516 3.76009 6.01216 3.58191 6.1535 3.48727C6.27803 3.67319 6.51083 3.90363 6.76359 3.81229C6.88984 3.76666 6.96175 3.68447 6.98557 3.54383C7.0152 3.36872 6.96373 3.27979 6.93959 3.21438C6.93373 3.173 6.93333 3.14279 6.94274 3.11725C6.97538 3.06817 7.06928 3.01135 7.28885 2.90974C7.97455 2.5924 8.69966 2.35353 9.45993 2.22594C9.68685 2.18786 9.93593 2.15922 10.1961 2.14014C10.2247 2.13879 10.2506 2.13684 10.2758 2.13463C10.349 2.12983 10.4229 2.12582 10.4973 2.12252C10.4972 2.52571 10.4187 3.2638 10.9868 3.2638C11.5621 3.2638 11.4793 2.532 11.4763 2.12209C11.8513 2.13836 12.2131 2.17386 12.5311 2.22884C12.8439 2.2829 13.1564 2.36389 13.452 2.44992C13.5676 2.48356 14.2464 2.69861 14.6804 2.89734L14.7188 2.91639C14.7775 2.94581 14.8262 2.97 14.8665 2.99058C14.9573 3.04163 15.0206 3.08915 15.0404 3.12924C15.0413 3.16999 15.006 3.224 14.9753 3.33592C14.9462 3.44172 14.9515 3.53287 14.9824 3.60541C15.0004 3.70206 15.0576 3.78262 15.1923 3.8091C15.4554 3.86084 15.6941 3.67535 15.82 3.48727C16.0681 3.65334 16.3651 3.87387 16.5797 4.07338L16.9366 4.38942C17.0531 4.5063 17.1577 4.59007 17.2731 4.7054L17.8439 5.31725C17.8801 5.35795 17.8796 5.36773 17.9158 5.40845C17.9507 5.44759 17.9855 5.4878 18.02 5.52881C18.0832 5.60876 18.1452 5.68945 18.2061 5.77064C18.2444 5.82172 18.2876 5.87369 18.3303 5.92669C18.3863 6.00389 18.4403 6.08143 18.4916 6.15799L18.4857 6.16654L18.4853 6.16712L18.4844 6.16838L18.482 6.1718C18.4497 6.21608 18.4092 6.25467 18.3678 6.29892C18.2437 6.42057 18.1161 6.53306 18.1764 6.75793L18.1776 6.76207C18.1848 6.83214 18.213 6.89766 18.2717 6.94871C18.4701 7.12138 18.761 6.89327 18.8945 6.97982C18.9146 6.99994 18.9341 7.02304 18.953 7.04838C18.9938 7.11306 19.0351 7.204 19.0626 7.25893C19.1438 7.42078 19.2212 7.59457 19.2936 7.77599C19.4177 8.09947 19.5533 8.5146 19.6584 8.92669C19.7277 9.21375 19.7807 9.49934 19.8135 9.77024C19.8282 9.89177 19.8384 10.0329 19.8523 10.1392L19.8532 10.1461C19.8611 10.2255 19.8695 10.3054 19.8744 10.3831L19.8744 10.3834L19.8745 10.385C19.8766 10.4221 19.8779 10.457 19.8783 10.4867L19.8783 10.4914V10.4923L19.8783 10.496V10.5005C19.4751 10.5005 18.7335 10.4162 18.7347 10.9897L18.7349 11L18.7347 11.0103C18.7335 11.5838 19.4751 11.4995 19.8783 11.4995V11.504L19.8783 11.5077V11.5086L19.8783 11.5133C19.8779 11.543 19.8766 11.5779 19.8745 11.615L19.8744 11.6166L19.8744 11.6169C19.8695 11.6946 19.8611 11.7745 19.8532 11.8539L19.8523 11.8608C19.8384 11.9671 19.8282 12.1082 19.8135 12.2298C19.7807 12.5008 19.7276 12.7866 19.6583 13.0739C19.5532 13.4858 19.4177 13.9007 19.2936 14.224C19.2212 14.4054 19.1438 14.5792 19.0626 14.7411C19.0351 14.796 18.9937 14.8871 18.953 14.9518C18.9341 14.9771 18.9146 15.0001 18.8946 15.0202C18.761 15.1068 18.4701 14.8786 18.2717 15.0513C18.213 15.1023 18.1848 15.1678 18.1776 15.2379L18.1764 15.2421C18.1161 15.4669 18.2437 15.5794 18.3678 15.7011C18.4092 15.7454 18.4497 15.7839 18.482 15.8282L18.4844 15.8316L18.4853 15.8329L18.4857 15.8335L18.4916 15.842C18.4403 15.9186 18.3863 15.9961 18.3303 16.0733C18.2876 16.1263 18.2444 16.1783 18.2061 16.2294C18.1452 16.3105 18.0832 16.3912 18.02 16.4712C17.9855 16.5122 17.9507 16.5524 17.9158 16.5915C17.8796 16.6322 17.8801 16.6421 17.8439 16.6827L17.2731 17.2946C17.1577 17.4099 17.0531 17.4937 16.9366 17.6106L16.5797 17.9266C16.3651 18.1261 16.0681 18.3467 15.82 18.5127C15.6941 18.3246 15.4554 18.1392 15.1923 18.1909C15.0576 18.2174 15.0004 18.2979 14.9824 18.3946C14.9515 18.4671 14.9462 18.5583 14.9753 18.6641C15.006 18.776 15.0413 18.83 15.0404 18.8708C15.0206 18.9108 14.9574 18.9583 14.8667 19.0093C14.8263 19.0299 14.7775 19.0541 14.7188 19.0836L14.6797 19.103C14.2456 19.3016 13.5675 19.5164 13.452 19.5501C13.1564 19.6361 12.8439 19.7171 12.5311 19.7712C12.2131 19.8261 11.8513 19.8616 11.4763 19.8779C11.4793 19.468 11.5621 18.7362 10.9868 18.7362C10.4187 18.7362 10.4972 19.4743 10.4973 19.8775C10.4229 19.8742 10.349 19.8702 10.2758 19.8654C10.2507 19.8632 10.2247 19.8612 10.1961 19.8599C9.93593 19.8408 9.68685 19.8121 9.45993 19.7741C8.69966 19.6465 7.97455 19.4076 7.28885 19.0903C7.06931 18.9886 6.97538 18.9319 6.94274 18.8828C6.93333 18.8572 6.93373 18.827 6.93959 18.7856C6.96376 18.7202 7.0152 18.6313 6.98557 18.4562C6.96175 18.3155 6.88984 18.2333 6.76359 18.1877C6.51083 18.0964 6.27803 18.3268 6.1535 18.5127C6.01216 18.4181 5.77513 18.2399 5.54586 18.0581C5.38284 17.9257 5.22266 17.7897 5.06262 17.6549L5.0367 17.6312C4.97562 17.5747 4.93589 17.5211 4.87173 17.4699C4.82511 17.4327 4.79474 17.4063 4.76285 17.3761C4.15262 16.7539 4.07537 16.5996 3.60976 16.0211C3.5659 15.9628 3.52324 15.9036 3.48194 15.842C3.58278 15.6915 3.81007 15.5591 3.7998 15.3123C3.80979 15.1075 3.64596 14.9537 3.3823 14.9875C3.2115 15.0093 3.15604 15.0753 3.0959 15.0391C3.05204 14.9983 2.99741 14.9114 2.91258 14.7442C2.47953 13.8702 2.23642 12.9192 2.13273 11.9308C2.12426 11.8503 2.10291 11.6927 2.09676 11.5922C2.09576 11.5601 2.09519 11.5292 2.09519 11.4995C2.18228 11.4995 2.26891 11.5005 2.35337 11.5002C2.39777 11.5017 2.43572 11.5048 2.46905 11.4987C2.80959 11.4905 3.09851 11.4417 3.21159 11.1885C3.2388 11.1275 3.24933 11.0629 3.24744 11ZM10.6472 21H10.7289L10.7294 21H11.1983C11.5158 20.9977 11.7512 20.9863 12.142 20.9381C13.1406 20.915 14.8298 20.3373 15.656 19.8574C15.7498 19.8029 15.8525 19.7408 15.956 19.6884C16.0662 19.6325 16.1345 19.5828 16.2366 19.5203C16.6266 19.2815 16.9756 19.0317 17.3228 18.751C18.0468 18.1654 18.7964 17.3545 19.3197 16.5679C19.4917 16.3094 19.8859 15.6522 20.0005 15.3932C20.1448 15.0669 20.2851 14.7662 20.4112 14.4175C20.5524 14.0268 20.6759 13.6051 20.7727 13.166C20.9176 12.5421 21 11.9169 21 11.3364V11.0658L20.9999 11.005V10.995L21 10.9342V10.6636C21 10.0831 20.9176 9.45793 20.7727 8.83397C20.6759 8.3949 20.5524 7.97317 20.4112 7.58252C20.2851 7.23379 20.1448 6.93313 20.0005 6.60676C19.8859 6.34779 19.4917 5.6906 19.3197 5.4321C18.7964 4.64551 18.0468 3.83462 17.3228 3.24902C16.9756 2.96828 16.6266 2.71847 16.2366 2.47965C16.1345 2.41721 16.0662 2.36753 15.956 2.31163C15.8525 2.2592 15.7498 2.19707 15.656 2.1426C14.8298 1.66267 13.1406 1.08503 12.142 1.06193C11.7512 1.01366 11.5158 1.00227 11.1983 1.00003H10.7294L10.7289 1H10.6472L10.6469 1.00003H10.6401C10.4756 1.00003 10.3015 1.00852 10.1224 1.02385C9.1669 1.05952 8.09431 1.36738 7.2751 1.69312C7.05332 1.78134 6.85757 1.87862 6.63705 1.97269C6.19602 2.16086 5.23678 2.77196 4.90669 3.03592L4.74597 3.16887C4.60879 3.27465 4.47215 3.38453 4.34616 3.49803C4.32721 3.51226 4.30849 3.52681 4.28203 3.55313L4.14817 3.67977C4.13069 3.69291 4.11306 3.70565 4.08881 3.727L3.99081 3.82868L3.91531 3.9001C3.78366 4.03171 3.65475 4.16765 3.52887 4.30789L3.50835 4.32918L3.48403 4.35825C2.47184 5.50106 1.66242 6.92613 1.2386 8.62483C1.22436 8.68196 1.21047 8.74277 1.19704 8.80622C1.10242 9.20606 1.04363 9.59464 1.03514 9.95046L1.01435 10.3986L1.0143 10.4654C1.00709 10.6397 1.00103 10.8241 1.00014 10.9657L1.00009 10.9718L1.00006 10.9806L1.00003 10.9881L1 10.9961V11.0039L1.00003 11.0119L1.00006 11.0194L1.00009 11.0282L1.00014 11.0343C1.00103 11.1759 1.00712 11.3604 1.0143 11.5346L1.01435 11.6014L1.03514 12.0495C1.04363 12.4054 1.10242 12.7939 1.19704 13.1938C1.21047 13.2572 1.22436 13.318 1.2386 13.3752C1.66242 15.0739 2.47184 16.4989 3.48403 17.6417L3.50835 17.6708L3.52887 17.6921C3.65475 17.8324 3.78366 17.9683 3.91531 18.0999L3.99081 18.1713L4.08881 18.273C4.11306 18.2943 4.13069 18.3071 4.14817 18.3202L4.28203 18.4469C4.30849 18.4732 4.32721 18.4877 4.34616 18.502C4.47215 18.6155 4.60879 18.7254 4.74597 18.8311L4.90669 18.9641C5.23678 19.228 6.19602 19.8391 6.63705 20.0273C6.85757 20.1214 7.05332 20.2187 7.2751 20.3069C8.09431 20.6326 9.1669 20.9405 10.1224 20.9762C10.3015 20.9915 10.4756 21 10.6401 21H10.6469L10.6472 21ZM10.5789 4.11926C10.5789 6.00848 10.5789 7.8977 10.5789 9.78694C10.5789 10.2251 10.6282 10.1552 10.4224 10.3236C10.3476 10.3848 10.305 10.4187 10.1943 10.4422C10.1082 10.4606 9.97328 10.4807 9.86583 10.4808C9.61434 10.481 9.43082 10.5005 9.17175 10.5005C8.73585 10.5005 6.62942 10.4953 6.4172 10.5806C6.28641 10.6332 6.1535 10.8481 6.1535 11.0306C6.1535 11.5091 6.75245 11.374 7.1206 11.4297C7.26629 11.4518 8.64882 11.4385 8.94742 11.4383C9.12534 11.4382 9.2401 11.4598 9.3956 11.4592C9.84367 11.4573 10.092 11.4346 10.3632 11.6335C11.0867 12.1645 11.8433 11.6659 11.8433 11.051C11.8433 10.8553 11.8426 10.7566 11.7408 10.5826C11.6767 10.4731 11.5372 10.3212 11.4392 10.2113C11.3782 10.1428 11.3924 10.1567 11.3936 10.0326C11.412 8.08868 11.3946 6.06768 11.3946 4.11926C11.3393 4.10448 11.2699 4.04316 11.1949 3.99277C10.9841 3.85126 10.9911 3.84882 10.7785 3.99259C10.7128 4.03696 10.6547 4.09903 10.5789 4.11926Z"/>
</mask>
<path fill-rule="evenodd" clip-rule="evenodd" d="M3.24744 11C3.24933 10.9371 3.2388 10.8725 3.21159 10.8115C3.05867 10.469 2.5841 10.5005 2.09519 10.5005C2.09519 10.4708 2.09576 10.4398 2.09676 10.4078C2.10291 10.3073 2.12426 10.1497 2.13273 10.0692C2.23642 9.08079 2.47953 8.12977 2.91258 7.25583C2.99741 7.08855 3.05204 7.00166 3.0959 6.96094C3.15604 6.92466 3.2115 6.99067 3.3823 7.01254C3.64596 7.04628 3.80979 6.89247 3.7998 6.68768C3.81007 6.44092 3.58278 6.30854 3.48194 6.15799C3.52324 6.09635 3.5659 6.03721 3.60976 5.97889C4.07537 5.40039 4.15262 5.24614 4.76285 4.62387C4.79474 4.59365 4.82511 4.56725 4.87173 4.53006C4.93589 4.47892 4.97562 4.42526 5.0367 4.36878L5.06262 4.34508C5.22266 4.21026 5.38281 4.07427 5.54586 3.94194C5.77516 3.76009 6.01216 3.58191 6.1535 3.48727C6.27803 3.67319 6.51083 3.90363 6.76359 3.81229C6.88984 3.76666 6.96175 3.68447 6.98557 3.54383C7.0152 3.36872 6.96373 3.27979 6.93959 3.21438C6.93373 3.173 6.93333 3.14279 6.94274 3.11725C6.97538 3.06817 7.06928 3.01135 7.28885 2.90974C7.97455 2.5924 8.69966 2.35353 9.45993 2.22594C9.68685 2.18786 9.93593 2.15922 10.1961 2.14014C10.2247 2.13879 10.2506 2.13684 10.2758 2.13463C10.349 2.12983 10.4229 2.12582 10.4973 2.12252C10.4972 2.52571 10.4187 3.2638 10.9868 3.2638C11.5621 3.2638 11.4793 2.532 11.4763 2.12209C11.8513 2.13836 12.2131 2.17386 12.5311 2.22884C12.8439 2.2829 13.1564 2.36389 13.452 2.44992C13.5676 2.48356 14.2464 2.69861 14.6804 2.89734L14.7188 2.91639C14.7775 2.94581 14.8262 2.97 14.8665 2.99058C14.9573 3.04163 15.0206 3.08915 15.0404 3.12924C15.0413 3.16999 15.006 3.224 14.9753 3.33592C14.9462 3.44172 14.9515 3.53287 14.9824 3.60541C15.0004 3.70206 15.0576 3.78262 15.1923 3.8091C15.4554 3.86084 15.6941 3.67535 15.82 3.48727C16.0681 3.65334 16.3651 3.87387 16.5797 4.07338L16.9366 4.38942C17.0531 4.5063 17.1577 4.59007 17.2731 4.7054L17.8439 5.31725C17.8801 5.35795 17.8796 5.36773 17.9158 5.40845C17.9507 5.44759 17.9855 5.4878 18.02 5.52881C18.0832 5.60876 18.1452 5.68945 18.2061 5.77064C18.2444 5.82172 18.2876 5.87369 18.3303 5.92669C18.3863 6.00389 18.4403 6.08143 18.4916 6.15799L18.4857 6.16654L18.4853 6.16712L18.4844 6.16838L18.482 6.1718C18.4497 6.21608 18.4092 6.25467 18.3678 6.29892C18.2437 6.42057 18.1161 6.53306 18.1764 6.75793L18.1776 6.76207C18.1848 6.83214 18.213 6.89766 18.2717 6.94871C18.4701 7.12138 18.761 6.89327 18.8945 6.97982C18.9146 6.99994 18.9341 7.02304 18.953 7.04838C18.9938 7.11306 19.0351 7.204 19.0626 7.25893C19.1438 7.42078 19.2212 7.59457 19.2936 7.77599C19.4177 8.09947 19.5533 8.5146 19.6584 8.92669C19.7277 9.21375 19.7807 9.49934 19.8135 9.77024C19.8282 9.89177 19.8384 10.0329 19.8523 10.1392L19.8532 10.1461C19.8611 10.2255 19.8695 10.3054 19.8744 10.3831L19.8744 10.3834L19.8745 10.385C19.8766 10.4221 19.8779 10.457 19.8783 10.4867L19.8783 10.4914V10.4923L19.8783 10.496V10.5005C19.4751 10.5005 18.7335 10.4162 18.7347 10.9897L18.7349 11L18.7347 11.0103C18.7335 11.5838 19.4751 11.4995 19.8783 11.4995V11.504L19.8783 11.5077V11.5086L19.8783 11.5133C19.8779 11.543 19.8766 11.5779 19.8745 11.615L19.8744 11.6166L19.8744 11.6169C19.8695 11.6946 19.8611 11.7745 19.8532 11.8539L19.8523 11.8608C19.8384 11.9671 19.8282 12.1082 19.8135 12.2298C19.7807 12.5008 19.7276 12.7866 19.6583 13.0739C19.5532 13.4858 19.4177 13.9007 19.2936 14.224C19.2212 14.4054 19.1438 14.5792 19.0626 14.7411C19.0351 14.796 18.9937 14.8871 18.953 14.9518C18.9341 14.9771 18.9146 15.0001 18.8946 15.0202C18.761 15.1068 18.4701 14.8786 18.2717 15.0513C18.213 15.1023 18.1848 15.1678 18.1776 15.2379L18.1764 15.2421C18.1161 15.4669 18.2437 15.5794 18.3678 15.7011C18.4092 15.7454 18.4497 15.7839 18.482 15.8282L18.4844 15.8316L18.4853 15.8329L18.4857 15.8335L18.4916 15.842C18.4403 15.9186 18.3863 15.9961 18.3303 16.0733C18.2876 16.1263 18.2444 16.1783 18.2061 16.2294C18.1452 16.3105 18.0832 16.3912 18.02 16.4712C17.9855 16.5122 17.9507 16.5524 17.9158 16.5915C17.8796 16.6322 17.8801 16.6421 17.8439 16.6827L17.2731 17.2946C17.1577 17.4099 17.0531 17.4937 16.9366 17.6106L16.5797 17.9266C16.3651 18.1261 16.0681 18.3467 15.82 18.5127C15.6941 18.3246 15.4554 18.1392 15.1923 18.1909C15.0576 18.2174 15.0004 18.2979 14.9824 18.3946C14.9515 18.4671 14.9462 18.5583 14.9753 18.6641C15.006 18.776 15.0413 18.83 15.0404 18.8708C15.0206 18.9108 14.9574 18.9583 14.8667 19.0093C14.8263 19.0299 14.7775 19.0541 14.7188 19.0836L14.6797 19.103C14.2456 19.3016 13.5675 19.5164 13.452 19.5501C13.1564 19.6361 12.8439 19.7171 12.5311 19.7712C12.2131 19.8261 11.8513 19.8616 11.4763 19.8779C11.4793 19.468 11.5621 18.7362 10.9868 18.7362C10.4187 18.7362 10.4972 19.4743 10.4973 19.8775C10.4229 19.8742 10.349 19.8702 10.2758 19.8654C10.2507 19.8632 10.2247 19.8612 10.1961 19.8599C9.93593 19.8408 9.68685 19.8121 9.45993 19.7741C8.69966 19.6465 7.97455 19.4076 7.28885 19.0903C7.06931 18.9886 6.97538 18.9319 6.94274 18.8828C6.93333 18.8572 6.93373 18.827 6.93959 18.7856C6.96376 18.7202 7.0152 18.6313 6.98557 18.4562C6.96175 18.3155 6.88984 18.2333 6.76359 18.1877C6.51083 18.0964 6.27803 18.3268 6.1535 18.5127C6.01216 18.4181 5.77513 18.2399 5.54586 18.0581C5.38284 17.9257 5.22266 17.7897 5.06262 17.6549L5.0367 17.6312C4.97562 17.5747 4.93589 17.5211 4.87173 17.4699C4.82511 17.4327 4.79474 17.4063 4.76285 17.3761C4.15262 16.7539 4.07537 16.5996 3.60976 16.0211C3.5659 15.9628 3.52324 15.9036 3.48194 15.842C3.58278 15.6915 3.81007 15.5591 3.7998 15.3123C3.80979 15.1075 3.64596 14.9537 3.3823 14.9875C3.2115 15.0093 3.15604 15.0753 3.0959 15.0391C3.05204 14.9983 2.99741 14.9114 2.91258 14.7442C2.47953 13.8702 2.23642 12.9192 2.13273 11.9308C2.12426 11.8503 2.10291 11.6927 2.09676 11.5922C2.09576 11.5601 2.09519 11.5292 2.09519 11.4995C2.18228 11.4995 2.26891 11.5005 2.35337 11.5002C2.39777 11.5017 2.43572 11.5048 2.46905 11.4987C2.80959 11.4905 3.09851 11.4417 3.21159 11.1885C3.2388 11.1275 3.24933 11.0629 3.24744 11ZM10.6472 21H10.7289L10.7294 21H11.1983C11.5158 20.9977 11.7512 20.9863 12.142 20.9381C13.1406 20.915 14.8298 20.3373 15.656 19.8574C15.7498 19.8029 15.8525 19.7408 15.956 19.6884C16.0662 19.6325 16.1345 19.5828 16.2366 19.5203C16.6266 19.2815 16.9756 19.0317 17.3228 18.751C18.0468 18.1654 18.7964 17.3545 19.3197 16.5679C19.4917 16.3094 19.8859 15.6522 20.0005 15.3932C20.1448 15.0669 20.2851 14.7662 20.4112 14.4175C20.5524 14.0268 20.6759 13.6051 20.7727 13.166C20.9176 12.5421 21 11.9169 21 11.3364V11.0658L20.9999 11.005V10.995L21 10.9342V10.6636C21 10.0831 20.9176 9.45793 20.7727 8.83397C20.6759 8.3949 20.5524 7.97317 20.4112 7.58252C20.2851 7.23379 20.1448 6.93313 20.0005 6.60676C19.8859 6.34779 19.4917 5.6906 19.3197 5.4321C18.7964 4.64551 18.0468 3.83462 17.3228 3.24902C16.9756 2.96828 16.6266 2.71847 16.2366 2.47965C16.1345 2.41721 16.0662 2.36753 15.956 2.31163C15.8525 2.2592 15.7498 2.19707 15.656 2.1426C14.8298 1.66267 13.1406 1.08503 12.142 1.06193C11.7512 1.01366 11.5158 1.00227 11.1983 1.00003H10.7294L10.7289 1H10.6472L10.6469 1.00003H10.6401C10.4756 1.00003 10.3015 1.00852 10.1224 1.02385C9.1669 1.05952 8.09431 1.36738 7.2751 1.69312C7.05332 1.78134 6.85757 1.87862 6.63705 1.97269C6.19602 2.16086 5.23678 2.77196 4.90669 3.03592L4.74597 3.16887C4.60879 3.27465 4.47215 3.38453 4.34616 3.49803C4.32721 3.51226 4.30849 3.52681 4.28203 3.55313L4.14817 3.67977C4.13069 3.69291 4.11306 3.70565 4.08881 3.727L3.99081 3.82868L3.91531 3.9001C3.78366 4.03171 3.65475 4.16765 3.52887 4.30789L3.50835 4.32918L3.48403 4.35825C2.47184 5.50106 1.66242 6.92613 1.2386 8.62483C1.22436 8.68196 1.21047 8.74277 1.19704 8.80622C1.10242 9.20606 1.04363 9.59464 1.03514 9.95046L1.01435 10.3986L1.0143 10.4654C1.00709 10.6397 1.00103 10.8241 1.00014 10.9657L1.00009 10.9718L1.00006 10.9806L1.00003 10.9881L1 10.9961V11.0039L1.00003 11.0119L1.00006 11.0194L1.00009 11.0282L1.00014 11.0343C1.00103 11.1759 1.00712 11.3604 1.0143 11.5346L1.01435 11.6014L1.03514 12.0495C1.04363 12.4054 1.10242 12.7939 1.19704 13.1938C1.21047 13.2572 1.22436 13.318 1.2386 13.3752C1.66242 15.0739 2.47184 16.4989 3.48403 17.6417L3.50835 17.6708L3.52887 17.6921C3.65475 17.8324 3.78366 17.9683 3.91531 18.0999L3.99081 18.1713L4.08881 18.273C4.11306 18.2943 4.13069 18.3071 4.14817 18.3202L4.28203 18.4469C4.30849 18.4732 4.32721 18.4877 4.34616 18.502C4.47215 18.6155 4.60879 18.7254 4.74597 18.8311L4.90669 18.9641C5.23678 19.228 6.19602 19.8391 6.63705 20.0273C6.85757 20.1214 7.05332 20.2187 7.2751 20.3069C8.09431 20.6326 9.1669 20.9405 10.1224 20.9762C10.3015 20.9915 10.4756 21 10.6401 21H10.6469L10.6472 21ZM10.5789 4.11926C10.5789 6.00848 10.5789 7.8977 10.5789 9.78694C10.5789 10.2251 10.6282 10.1552 10.4224 10.3236C10.3476 10.3848 10.305 10.4187 10.1943 10.4422C10.1082 10.4606 9.97328 10.4807 9.86583 10.4808C9.61434 10.481 9.43082 10.5005 9.17175 10.5005C8.73585 10.5005 6.62942 10.4953 6.4172 10.5806C6.28641 10.6332 6.1535 10.8481 6.1535 11.0306C6.1535 11.5091 6.75245 11.374 7.1206 11.4297C7.26629 11.4518 8.64882 11.4385 8.94742 11.4383C9.12534 11.4382 9.2401 11.4598 9.3956 11.4592C9.84367 11.4573 10.092 11.4346 10.3632 11.6335C11.0867 12.1645 11.8433 11.6659 11.8433 11.051C11.8433 10.8553 11.8426 10.7566 11.7408 10.5826C11.6767 10.4731 11.5372 10.3212 11.4392 10.2113C11.3782 10.1428 11.3924 10.1567 11.3936 10.0326C11.412 8.08868 11.3946 6.06768 11.3946 4.11926C11.3393 4.10448 11.2699 4.04316 11.1949 3.99277C10.9841 3.85126 10.9911 3.84882 10.7785 3.99259C10.7128 4.03696 10.6547 4.09903 10.5789 4.11926Z" fill="#AF2D46"/>
<path fill-rule="evenodd" clip-rule="evenodd" d="M3.24744 11C3.24933 10.9371 3.2388 10.8725 3.21159 10.8115C3.05867 10.469 2.5841 10.5005 2.09519 10.5005C2.09519 10.4708 2.09576 10.4398 2.09676 10.4078C2.10291 10.3073 2.12426 10.1497 2.13273 10.0692C2.23642 9.08079 2.47953 8.12977 2.91258 7.25583C2.99741 7.08855 3.05204 7.00166 3.0959 6.96094C3.15604 6.92466 3.2115 6.99067 3.3823 7.01254C3.64596 7.04628 3.80979 6.89247 3.7998 6.68768C3.81007 6.44092 3.58278 6.30854 3.48194 6.15799C3.52324 6.09635 3.5659 6.03721 3.60976 5.97889C4.07537 5.40039 4.15262 5.24614 4.76285 4.62387C4.79474 4.59365 4.82511 4.56725 4.87173 4.53006C4.93589 4.47892 4.97562 4.42526 5.0367 4.36878L5.06262 4.34508C5.22266 4.21026 5.38281 4.07427 5.54586 3.94194C5.77516 3.76009 6.01216 3.58191 6.1535 3.48727C6.27803 3.67319 6.51083 3.90363 6.76359 3.81229C6.88984 3.76666 6.96175 3.68447 6.98557 3.54383C7.0152 3.36872 6.96373 3.27979 6.93959 3.21438C6.93373 3.173 6.93333 3.14279 6.94274 3.11725C6.97538 3.06817 7.06928 3.01135 7.28885 2.90974C7.97455 2.5924 8.69966 2.35353 9.45993 2.22594C9.68685 2.18786 9.93593 2.15922 10.1961 2.14014C10.2247 2.13879 10.2506 2.13684 10.2758 2.13463C10.349 2.12983 10.4229 2.12582 10.4973 2.12252C10.4972 2.52571 10.4187 3.2638 10.9868 3.2638C11.5621 3.2638 11.4793 2.532 11.4763 2.12209C11.8513 2.13836 12.2131 2.17386 12.5311 2.22884C12.8439 2.2829 13.1564 2.36389 13.452 2.44992C13.5676 2.48356 14.2464 2.69861 14.6804 2.89734L14.7188 2.91639C14.7775 2.94581 14.8262 2.97 14.8665 2.99058C14.9573 3.04163 15.0206 3.08915 15.0404 3.12924C15.0413 3.16999 15.006 3.224 14.9753 3.33592C14.9462 3.44172 14.9515 3.53287 14.9824 3.60541C15.0004 3.70206 15.0576 3.78262 15.1923 3.8091C15.4554 3.86084 15.6941 3.67535 15.82 3.48727C16.0681 3.65334 16.3651 3.87387 16.5797 4.07338L16.9366 4.38942C17.0531 4.5063 17.1577 4.59007 17.2731 4.7054L17.8439 5.31725C17.8801 5.35795 17.8796 5.36773 17.9158 5.40845C17.9507 5.44759 17.9855 5.4878 18.02 5.52881C18.0832 5.60876 18.1452 5.68945 18.2061 5.77064C18.2444 5.82172 18.2876 5.87369 18.3303 5.92669C18.3863 6.00389 18.4403 6.08143 18.4916 6.15799L18.4857 6.16654L18.4853 6.16712L18.4844 6.16838L18.482 6.1718C18.4497 6.21608 18.4092 6.25467 18.3678 6.29892C18.2437 6.42057 18.1161 6.53306 18.1764 6.75793L18.1776 6.76207C18.1848 6.83214 18.213 6.89766 18.2717 6.94871C18.4701 7.12138 18.761 6.89327 18.8945 6.97982C18.9146 6.99994 18.9341 7.02304 18.953 7.04838C18.9938 7.11306 19.0351 7.204 19.0626 7.25893C19.1438 7.42078 19.2212 7.59457 19.2936 7.77599C19.4177 8.09947 19.5533 8.5146 19.6584 8.92669C19.7277 9.21375 19.7807 9.49934 19.8135 9.77024C19.8282 9.89177 19.8384 10.0329 19.8523 10.1392L19.8532 10.1461C19.8611 10.2255 19.8695 10.3054 19.8744 10.3831L19.8744 10.3834L19.8745 10.385C19.8766 10.4221 19.8779 10.457 19.8783 10.4867L19.8783 10.4914V10.4923L19.8783 10.496V10.5005C19.4751 10.5005 18.7335 10.4162 18.7347 10.9897L18.7349 11L18.7347 11.0103C18.7335 11.5838 19.4751 11.4995 19.8783 11.4995V11.504L19.8783 11.5077V11.5086L19.8783 11.5133C19.8779 11.543 19.8766 11.5779 19.8745 11.615L19.8744 11.6166L19.8744 11.6169C19.8695 11.6946 19.8611 11.7745 19.8532 11.8539L19.8523 11.8608C19.8384 11.9671 19.8282 12.1082 19.8135 12.2298C19.7807 12.5008 19.7276 12.7866 19.6583 13.0739C19.5532 13.4858 19.4177 13.9007 19.2936 14.224C19.2212 14.4054 19.1438 14.5792 19.0626 14.7411C19.0351 14.796 18.9937 14.8871 18.953 14.9518C18.9341 14.9771 18.9146 15.0001 18.8946 15.0202C18.761 15.1068 18.4701 14.8786 18.2717 15.0513C18.213 15.1023 18.1848 15.1678 18.1776 15.2379L18.1764 15.2421C18.1161 15.4669 18.2437 15.5794 18.3678 15.7011C18.4092 15.7454 18.4497 15.7839 18.482 15.8282L18.4844 15.8316L18.4853 15.8329L18.4857 15.8335L18.4916 15.842C18.4403 15.9186 18.3863 15.9961 18.3303 16.0733C18.2876 16.1263 18.2444 16.1783 18.2061 16.2294C18.1452 16.3105 18.0832 16.3912 18.02 16.4712C17.9855 16.5122 17.9507 16.5524 17.9158 16.5915C17.8796 16.6322 17.8801 16.6421 17.8439 16.6827L17.2731 17.2946C17.1577 17.4099 17.0531 17.4937 16.9366 17.6106L16.5797 17.9266C16.3651 18.1261 16.0681 18.3467 15.82 18.5127C15.6941 18.3246 15.4554 18.1392 15.1923 18.1909C15.0576 18.2174 15.0004 18.2979 14.9824 18.3946C14.9515 18.4671 14.9462 18.5583 14.9753 18.6641C15.006 18.776 15.0413 18.83 15.0404 18.8708C15.0206 18.9108 14.9574 18.9583 14.8667 19.0093C14.8263 19.0299 14.7775 19.0541 14.7188 19.0836L14.6797 19.103C14.2456 19.3016 13.5675 19.5164 13.452 19.5501C13.1564 19.6361 12.8439 19.7171 12.5311 19.7712C12.2131 19.8261 11.8513 19.8616 11.4763 19.8779C11.4793 19.468 11.5621 18.7362 10.9868 18.7362C10.4187 18.7362 10.4972 19.4743 10.4973 19.8775C10.4229 19.8742 10.349 19.8702 10.2758 19.8654C10.2507 19.8632 10.2247 19.8612 10.1961 19.8599C9.93593 19.8408 9.68685 19.8121 9.45993 19.7741C8.69966 19.6465 7.97455 19.4076 7.28885 19.0903C7.06931 18.9886 6.97538 18.9319 6.94274 18.8828C6.93333 18.8572 6.93373 18.827 6.93959 18.7856C6.96376 18.7202 7.0152 18.6313 6.98557 18.4562C6.96175 18.3155 6.88984 18.2333 6.76359 18.1877C6.51083 18.0964 6.27803 18.3268 6.1535 18.5127C6.01216 18.4181 5.77513 18.2399 5.54586 18.0581C5.38284 17.9257 5.22266 17.7897 5.06262 17.6549L5.0367 17.6312C4.97562 17.5747 4.93589 17.5211 4.87173 17.4699C4.82511 17.4327 4.79474 17.4063 4.76285 17.3761C4.15262 16.7539 4.07537 16.5996 3.60976 16.0211C3.5659 15.9628 3.52324 15.9036 3.48194 15.842C3.58278 15.6915 3.81007 15.5591 3.7998 15.3123C3.80979 15.1075 3.64596 14.9537 3.3823 14.9875C3.2115 15.0093 3.15604 15.0753 3.0959 15.0391C3.05204 14.9983 2.99741 14.9114 2.91258 14.7442C2.47953 13.8702 2.23642 12.9192 2.13273 11.9308C2.12426 11.8503 2.10291 11.6927 2.09676 11.5922C2.09576 11.5601 2.09519 11.5292 2.09519 11.4995C2.18228 11.4995 2.26891 11.5005 2.35337 11.5002C2.39777 11.5017 2.43572 11.5048 2.46905 11.4987C2.80959 11.4905 3.09851 11.4417 3.21159 11.1885C3.2388 11.1275 3.24933 11.0629 3.24744 11ZM10.6472 21H10.7289L10.7294 21H11.1983C11.5158 20.9977 11.7512 20.9863 12.142 20.9381C13.1406 20.915 14.8298 20.3373 15.656 19.8574C15.7498 19.8029 15.8525 19.7408 15.956 19.6884C16.0662 19.6325 16.1345 19.5828 16.2366 19.5203C16.6266 19.2815 16.9756 19.0317 17.3228 18.751C18.0468 18.1654 18.7964 17.3545 19.3197 16.5679C19.4917 16.3094 19.8859 15.6522 20.0005 15.3932C20.1448 15.0669 20.2851 14.7662 20.4112 14.4175C20.5524 14.0268 20.6759 13.6051 20.7727 13.166C20.9176 12.5421 21 11.9169 21 11.3364V11.0658L20.9999 11.005V10.995L21 10.9342V10.6636C21 10.0831 20.9176 9.45793 20.7727 8.83397C20.6759 8.3949 20.5524 7.97317 20.4112 7.58252C20.2851 7.23379 20.1448 6.93313 20.0005 6.60676C19.8859 6.34779 19.4917 5.6906 19.3197 5.4321C18.7964 4.64551 18.0468 3.83462 17.3228 3.24902C16.9756 2.96828 16.6266 2.71847 16.2366 2.47965C16.1345 2.41721 16.0662 2.36753 15.956 2.31163C15.8525 2.2592 15.7498 2.19707 15.656 2.1426C14.8298 1.66267 13.1406 1.08503 12.142 1.06193C11.7512 1.01366 11.5158 1.00227 11.1983 1.00003H10.7294L10.7289 1H10.6472L10.6469 1.00003H10.6401C10.4756 1.00003 10.3015 1.00852 10.1224 1.02385C9.1669 1.05952 8.09431 1.36738 7.2751 1.69312C7.05332 1.78134 6.85757 1.87862 6.63705 1.97269C6.19602 2.16086 5.23678 2.77196 4.90669 3.03592L4.74597 3.16887C4.60879 3.27465 4.47215 3.38453 4.34616 3.49803C4.32721 3.51226 4.30849 3.52681 4.28203 3.55313L4.14817 3.67977C4.13069 3.69291 4.11306 3.70565 4.08881 3.727L3.99081 3.82868L3.91531 3.9001C3.78366 4.03171 3.65475 4.16765 3.52887 4.30789L3.50835 4.32918L3.48403 4.35825C2.47184 5.50106 1.66242 6.92613 1.2386 8.62483C1.22436 8.68196 1.21047 8.74277 1.19704 8.80622C1.10242 9.20606 1.04363 9.59464 1.03514 9.95046L1.01435 10.3986L1.0143 10.4654C1.00709 10.6397 1.00103 10.8241 1.00014 10.9657L1.00009 10.9718L1.00006 10.9806L1.00003 10.9881L1 10.9961V11.0039L1.00003 11.0119L1.00006 11.0194L1.00009 11.0282L1.00014 11.0343C1.00103 11.1759 1.00712 11.3604 1.0143 11.5346L1.01435 11.6014L1.03514 12.0495C1.04363 12.4054 1.10242 12.7939 1.19704 13.1938C1.21047 13.2572 1.22436 13.318 1.2386 13.3752C1.66242 15.0739 2.47184 16.4989 3.48403 17.6417L3.50835 17.6708L3.52887 17.6921C3.65475 17.8324 3.78366 17.9683 3.91531 18.0999L3.99081 18.1713L4.08881 18.273C4.11306 18.2943 4.13069 18.3071 4.14817 18.3202L4.28203 18.4469C4.30849 18.4732 4.32721 18.4877 4.34616 18.502C4.47215 18.6155 4.60879 18.7254 4.74597 18.8311L4.90669 18.9641C5.23678 19.228 6.19602 19.8391 6.63705 20.0273C6.85757 20.1214 7.05332 20.2187 7.2751 20.3069C8.09431 20.6326 9.1669 20.9405 10.1224 20.9762C10.3015 20.9915 10.4756 21 10.6401 21H10.6469L10.6472 21ZM10.5789 4.11926C10.5789 6.00848 10.5789 7.8977 10.5789 9.78694C10.5789 10.2251 10.6282 10.1552 10.4224 10.3236C10.3476 10.3848 10.305 10.4187 10.1943 10.4422C10.1082 10.4606 9.97328 10.4807 9.86583 10.4808C9.61434 10.481 9.43082 10.5005 9.17175 10.5005C8.73585 10.5005 6.62942 10.4953 6.4172 10.5806C6.28641 10.6332 6.1535 10.8481 6.1535 11.0306C6.1535 11.5091 6.75245 11.374 7.1206 11.4297C7.26629 11.4518 8.64882 11.4385 8.94742 11.4383C9.12534 11.4382 9.2401 11.4598 9.3956 11.4592C9.84367 11.4573 10.092 11.4346 10.3632 11.6335C11.0867 12.1645 11.8433 11.6659 11.8433 11.051C11.8433 10.8553 11.8426 10.7566 11.7408 10.5826C11.6767 10.4731 11.5372 10.3212 11.4392 10.2113C11.3782 10.1428 11.3924 10.1567 11.3936 10.0326C11.412 8.08868 11.3946 6.06768 11.3946 4.11926C11.3393 4.10448 11.2699 4.04316 11.1949 3.99277C10.9841 3.85126 10.9911 3.84882 10.7785 3.99259C10.7128 4.03696 10.6547 4.09903 10.5789 4.11926Z" stroke="#AF2D46" stroke-width="0.6" mask="url(#path-1-outside-1_8_200)"/>
</svg>
