<svg width="38" height="38" viewBox="0 0 38 38" fill="none" xmlns="http://www.w3.org/2000/svg">
<g filter="url(#filter0_d_16_211)">
<path d="M23.9985 15C23.9985 12.2387 21.7607 9.9996 18.9993 9.9996C16.238 9.9996 13.9989 12.2387 13.9989 15C13.9989 17.7613 16.238 20.0004 18.9993 20.0004C21.7607 20.0004 23.9985 17.7613 23.9985 15ZM26.7017 15C26.7017 19.254 23.2533 22.7023 18.9993 22.7023C14.7453 22.7023 11.297 19.254 11.297 15C11.297 10.746 14.7453 7.29768 18.9993 7.29768C23.2533 7.29768 26.7017 10.746 26.7017 15ZM12.7921 6.99228C12.7922 7.34829 12.6868 7.69634 12.4891 7.99243C12.2915 8.28852 12.0104 8.51934 11.6816 8.65571C11.3527 8.79208 10.9908 8.82787 10.6416 8.75855C10.2924 8.68924 9.97165 8.51793 9.71981 8.2663C9.46798 8.01467 9.29642 7.69401 9.22683 7.34487C9.15723 6.99573 9.19274 6.6338 9.32884 6.30483C9.46495 5.97587 9.69554 5.69466 9.99147 5.49675C10.2874 5.29885 10.6354 5.19314 10.9914 5.193H10.9921C11.4693 5.19322 11.9269 5.38284 12.2644 5.7202C12.6019 6.05756 12.7917 6.51508 12.7921 6.99228ZM25.0593 27.2096C26.5218 27.143 27.3167 26.8994 27.8449 26.6936C28.5452 26.421 29.0449 26.0963 29.5703 25.5716C30.0956 25.047 30.4208 24.5478 30.6923 23.8475C30.8982 23.3195 31.1418 22.5244 31.2082 21.0619C31.281 19.4808 31.2955 19.0058 31.2955 15.0001C31.2955 10.9944 31.2798 10.5208 31.2082 8.93832C31.1416 7.47588 30.8962 6.68232 30.6923 6.15276C30.4196 5.45244 30.0949 4.95276 29.5703 4.4274C29.0456 3.90204 28.5464 3.57684 27.8449 3.3054C27.3169 3.09948 26.5218 2.85588 25.0593 2.7894C23.4782 2.71668 23.0033 2.70216 18.9993 2.70216C14.9954 2.70216 14.52 2.71788 12.9375 2.7894C11.4751 2.856 10.6815 3.1014 10.152 3.3054C9.45166 3.57684 8.95198 3.90276 8.42662 4.4274C7.90126 4.95204 7.57726 5.45244 7.30462 6.15276C7.0987 6.68076 6.8551 7.47588 6.78862 8.93832C6.7159 10.5208 6.70138 10.9944 6.70138 15.0001C6.70138 19.0058 6.7159 19.4795 6.78862 21.0619C6.85522 22.5244 7.10002 23.3192 7.30462 23.8475C7.57726 24.5478 7.90198 25.0475 8.42662 25.5716C8.95126 26.0958 9.45166 26.421 10.152 26.6936C10.68 26.8996 11.4751 27.1432 12.9375 27.2096C14.5187 27.2824 14.9936 27.2969 18.9993 27.2969C23.0051 27.2969 23.4787 27.2824 25.0593 27.2096ZM25.1835 0.09084C26.7804 0.16356 27.8715 0.41676 28.8245 0.78756C29.8113 1.17048 30.6468 1.6842 31.4816 2.51772C32.3164 3.35124 32.8288 4.188 33.2118 5.17488C33.5826 6.1284 33.8358 7.21896 33.9085 8.8158C33.9824 10.4152 33.9993 10.9265 33.9993 15C33.9993 19.0735 33.9824 19.5848 33.9085 21.1842C33.8358 22.7812 33.5826 23.8716 33.2118 24.8251C32.8288 25.8114 32.3163 26.6491 31.4816 27.4823C30.6469 28.3154 29.8113 28.8284 28.8245 29.2124C27.8697 29.5832 26.7804 29.8364 25.1835 29.9092C23.5833 29.9819 23.0729 30 18.9993 30C14.9258 30 14.4145 29.9831 12.8151 29.9092C11.2182 29.8364 10.1277 29.5832 9.17422 29.2124C8.18794 28.8284 7.3519 28.3158 6.51706 27.4823C5.68222 26.6488 5.1709 25.8114 4.7869 24.8251C4.4161 23.8716 4.1617 22.781 4.09018 21.1842C4.01746 19.5836 4.00054 19.0735 4.00054 15C4.00054 10.9265 4.01746 10.4152 4.09018 8.8158C4.1629 7.21884 4.4161 6.1278 4.7869 5.17488C5.1709 4.1886 5.68354 3.35256 6.51706 2.51772C7.35058 1.68288 8.18794 1.17048 9.17302 0.78756C10.1277 0.41676 11.2183 0.16236 12.8139 0.09084C14.4133 0.01812 14.9246 0 18.9981 0C23.0717 0 23.5833 0.01692 25.1835 0.09084Z" fill="url(#paint0_radial_16_211)"/>
<path d="M23.9985 15C23.9985 12.2387 21.7607 9.9996 18.9993 9.9996C16.238 9.9996 13.9989 12.2387 13.9989 15C13.9989 17.7613 16.238 20.0004 18.9993 20.0004C21.7607 20.0004 23.9985 17.7613 23.9985 15ZM26.7017 15C26.7017 19.254 23.2533 22.7023 18.9993 22.7023C14.7453 22.7023 11.297 19.254 11.297 15C11.297 10.746 14.7453 7.29768 18.9993 7.29768C23.2533 7.29768 26.7017 10.746 26.7017 15ZM12.7921 6.99228C12.7922 7.34829 12.6868 7.69634 12.4891 7.99243C12.2915 8.28852 12.0104 8.51934 11.6816 8.65571C11.3527 8.79208 10.9908 8.82787 10.6416 8.75855C10.2924 8.68924 9.97165 8.51793 9.71981 8.2663C9.46798 8.01467 9.29642 7.69401 9.22683 7.34487C9.15723 6.99573 9.19274 6.6338 9.32884 6.30483C9.46495 5.97587 9.69554 5.69466 9.99147 5.49675C10.2874 5.29885 10.6354 5.19314 10.9914 5.193H10.9921C11.4693 5.19322 11.9269 5.38284 12.2644 5.7202C12.6019 6.05756 12.7917 6.51508 12.7921 6.99228ZM25.0593 27.2096C26.5218 27.143 27.3167 26.8994 27.8449 26.6936C28.5452 26.421 29.0449 26.0963 29.5703 25.5716C30.0956 25.047 30.4208 24.5478 30.6923 23.8475C30.8982 23.3195 31.1418 22.5244 31.2082 21.0619C31.281 19.4808 31.2955 19.0058 31.2955 15.0001C31.2955 10.9944 31.2798 10.5208 31.2082 8.93832C31.1416 7.47588 30.8962 6.68232 30.6923 6.15276C30.4196 5.45244 30.0949 4.95276 29.5703 4.4274C29.0456 3.90204 28.5464 3.57684 27.8449 3.3054C27.3169 3.09948 26.5218 2.85588 25.0593 2.7894C23.4782 2.71668 23.0033 2.70216 18.9993 2.70216C14.9954 2.70216 14.52 2.71788 12.9375 2.7894C11.4751 2.856 10.6815 3.1014 10.152 3.3054C9.45166 3.57684 8.95198 3.90276 8.42662 4.4274C7.90126 4.95204 7.57726 5.45244 7.30462 6.15276C7.0987 6.68076 6.8551 7.47588 6.78862 8.93832C6.7159 10.5208 6.70138 10.9944 6.70138 15.0001C6.70138 19.0058 6.7159 19.4795 6.78862 21.0619C6.85522 22.5244 7.10002 23.3192 7.30462 23.8475C7.57726 24.5478 7.90198 25.0475 8.42662 25.5716C8.95126 26.0958 9.45166 26.421 10.152 26.6936C10.68 26.8996 11.4751 27.1432 12.9375 27.2096C14.5187 27.2824 14.9936 27.2969 18.9993 27.2969C23.0051 27.2969 23.4787 27.2824 25.0593 27.2096ZM25.1835 0.09084C26.7804 0.16356 27.8715 0.41676 28.8245 0.78756C29.8113 1.17048 30.6468 1.6842 31.4816 2.51772C32.3164 3.35124 32.8288 4.188 33.2118 5.17488C33.5826 6.1284 33.8358 7.21896 33.9085 8.8158C33.9824 10.4152 33.9993 10.9265 33.9993 15C33.9993 19.0735 33.9824 19.5848 33.9085 21.1842C33.8358 22.7812 33.5826 23.8716 33.2118 24.8251C32.8288 25.8114 32.3163 26.6491 31.4816 27.4823C30.6469 28.3154 29.8113 28.8284 28.8245 29.2124C27.8697 29.5832 26.7804 29.8364 25.1835 29.9092C23.5833 29.9819 23.0729 30 18.9993 30C14.9258 30 14.4145 29.9831 12.8151 29.9092C11.2182 29.8364 10.1277 29.5832 9.17422 29.2124C8.18794 28.8284 7.3519 28.3158 6.51706 27.4823C5.68222 26.6488 5.1709 25.8114 4.7869 24.8251C4.4161 23.8716 4.1617 22.781 4.09018 21.1842C4.01746 19.5836 4.00054 19.0735 4.00054 15C4.00054 10.9265 4.01746 10.4152 4.09018 8.8158C4.1629 7.21884 4.4161 6.1278 4.7869 5.17488C5.1709 4.1886 5.68354 3.35256 6.51706 2.51772C7.35058 1.68288 8.18794 1.17048 9.17302 0.78756C10.1277 0.41676 11.2183 0.16236 12.8139 0.09084C14.4133 0.01812 14.9246 0 18.9981 0C23.0717 0 23.5833 0.01692 25.1835 0.09084Z" fill="url(#paint1_radial_16_211)"/>
</g>
<defs>
<filter id="filter0_d_16_211" x="0" y="0" width="38" height="38" filterUnits="userSpaceOnUse" color-interpolation-filters="sRGB">
<feFlood flood-opacity="0" result="BackgroundImageFix"/>
<feColorMatrix in="SourceAlpha" type="matrix" values="0 0 0 0 0 0 0 0 0 0 0 0 0 0 0 0 0 0 127 0" result="hardAlpha"/>
<feOffset dy="4"/>
<feGaussianBlur stdDeviation="2"/>
<feComposite in2="hardAlpha" operator="out"/>
<feColorMatrix type="matrix" values="0 0 0 0 0 0 0 0 0 0 0 0 0 0 0 0 0 0 0.25 0"/>
<feBlend mode="normal" in2="BackgroundImageFix" result="effect1_dropShadow_16_211"/>
<feBlend mode="normal" in="SourceGraphic" in2="effect1_dropShadow_16_211" result="shape"/>
</filter>
<radialGradient id="paint0_radial_16_211" cx="0" cy="0" r="1" gradientUnits="userSpaceOnUse" gradientTransform="translate(30.0137 30.1417) rotate(180) scale(39.1625)">
<stop offset="0.09" stop-color="#FA8F21"/>
<stop offset="0.78" stop-color="#D82D7E"/>
</radialGradient>
<radialGradient id="paint1_radial_16_211" cx="0" cy="0" r="1" gradientUnits="userSpaceOnUse" gradientTransform="translate(15.8057 31.4857) rotate(180) scale(30.8654)">
<stop offset="0.64" stop-color="#8C3AAA" stop-opacity="0"/>
<stop offset="1" stop-color="#8C3AAA"/>
</radialGradient>
</defs>
</svg>
