<svg width="30" height="30" viewBox="0 0 30 30" fill="none" xmlns="http://www.w3.org/2000/svg">
<path d="M19.9985 15C19.9985 12.2387 17.7607 9.9996 14.9993 9.9996C12.238 9.9996 9.99894 12.2387 9.99894 15C9.99894 17.7613 12.238 20.0004 14.9993 20.0004C17.7607 20.0004 19.9985 17.7613 19.9985 15ZM22.7017 15C22.7017 19.254 19.2533 22.7023 14.9993 22.7023C10.7453 22.7023 7.29702 19.254 7.29702 15C7.29702 10.746 10.7453 7.29768 14.9993 7.29768C19.2533 7.29768 22.7017 10.746 22.7017 15ZM8.7921 6.99228C8.79224 7.34829 8.68681 7.69634 8.48914 7.99243C8.29147 8.28852 8.01044 8.51934 7.68159 8.65571C7.35274 8.79208 6.99083 8.82787 6.64164 8.75855C6.29245 8.68924 5.97165 8.51793 5.71981 8.2663C5.46798 8.01467 5.29642 7.69401 5.22683 7.34487C5.15723 6.99573 5.19274 6.6338 5.32884 6.30483C5.46495 5.97587 5.69554 5.69466 5.99147 5.49675C6.2874 5.29885 6.63537 5.19314 6.99138 5.193H6.9921C7.46929 5.19322 7.92689 5.38284 8.26439 5.7202C8.60189 6.05756 8.79168 6.51508 8.7921 6.99228ZM21.0593 27.2096C22.5218 27.143 23.3167 26.8994 23.8449 26.6936C24.5452 26.421 25.0449 26.0963 25.5703 25.5716C26.0956 25.047 26.4208 24.5478 26.6923 23.8475C26.8982 23.3195 27.1418 22.5244 27.2082 21.0619C27.281 19.4808 27.2955 19.0058 27.2955 15.0001C27.2955 10.9944 27.2798 10.5208 27.2082 8.93832C27.1416 7.47588 26.8962 6.68232 26.6923 6.15276C26.4196 5.45244 26.0949 4.95276 25.5703 4.4274C25.0456 3.90204 24.5464 3.57684 23.8449 3.3054C23.3169 3.09948 22.5218 2.85588 21.0593 2.7894C19.4782 2.71668 19.0033 2.70216 14.9993 2.70216C10.9954 2.70216 10.52 2.71788 8.93754 2.7894C7.4751 2.856 6.68154 3.1014 6.15198 3.3054C5.45166 3.57684 4.95198 3.90276 4.42662 4.4274C3.90126 4.95204 3.57726 5.45244 3.30462 6.15276C3.0987 6.68076 2.8551 7.47588 2.78862 8.93832C2.7159 10.5208 2.70138 10.9944 2.70138 15.0001C2.70138 19.0058 2.7159 19.4795 2.78862 21.0619C2.85522 22.5244 3.10002 23.3192 3.30462 23.8475C3.57726 24.5478 3.90198 25.0475 4.42662 25.5716C4.95126 26.0958 5.45166 26.421 6.15198 26.6936C6.67998 26.8996 7.4751 27.1432 8.93754 27.2096C10.5187 27.2824 10.9936 27.2969 14.9993 27.2969C19.0051 27.2969 19.4787 27.2824 21.0593 27.2096ZM21.1835 0.09084C22.7804 0.16356 23.8715 0.41676 24.8245 0.78756C25.8113 1.17048 26.6468 1.6842 27.4816 2.51772C28.3164 3.35124 28.8288 4.188 29.2118 5.17488C29.5826 6.1284 29.8358 7.21896 29.9085 8.8158C29.9824 10.4152 29.9993 10.9265 29.9993 15C29.9993 19.0735 29.9824 19.5848 29.9085 21.1842C29.8358 22.7812 29.5826 23.8716 29.2118 24.8251C28.8288 25.8114 28.3163 26.6491 27.4816 27.4823C26.6469 28.3154 25.8113 28.8284 24.8245 29.2124C23.8697 29.5832 22.7804 29.8364 21.1835 29.9092C19.5833 29.9819 19.0729 30 14.9993 30C10.9258 30 10.4145 29.9831 8.81514 29.9092C7.21818 29.8364 6.12774 29.5832 5.17422 29.2124C4.18794 28.8284 3.3519 28.3158 2.51706 27.4823C1.68222 26.6488 1.1709 25.8114 0.786898 24.8251C0.416098 23.8716 0.161701 22.781 0.0901814 21.1842C0.0174599 19.5836 0.000541687 19.0735 0.000541687 15C0.000541687 10.9265 0.0174599 10.4152 0.0901814 8.8158C0.162901 7.21884 0.416098 6.1278 0.786898 5.17488C1.1709 4.1886 1.68354 3.35256 2.51706 2.51772C3.35058 1.68288 4.18794 1.17048 5.17302 0.78756C6.12774 0.41676 7.2183 0.16236 8.81394 0.09084C10.4133 0.01812 10.9246 0 14.9981 0C19.0717 0 19.5833 0.01692 21.1835 0.09084Z" fill="url(#paint0_radial_16_212)"/>
<defs>
<radialGradient id="paint0_radial_16_212" cx="0" cy="0" r="1" gradientUnits="userSpaceOnUse" gradientTransform="translate(26.0137 30.1417) rotate(180) scale(39.1625)">
<stop offset="0.09" stop-color="#FA8F21"/>
<stop offset="0.78" stop-color="#D82D7E"/>
</radialGradient>
</defs>
</svg>
