<svg width="38" height="38" viewBox="0 0 38 38" fill="none" xmlns="http://www.w3.org/2000/svg">
<g filter="url(#filter0_d_15_206)">
<path fill-rule="evenodd" clip-rule="evenodd" d="M14.4 0H23.6C32 0 34 2 34 10.4V19.6C34 28 32 30 23.6 30H14.4C6 30 4 28 4 19.6V10.4C4 2 6 0 14.4 0Z" fill="#5181B8"/>
<path fill-rule="evenodd" clip-rule="evenodd" d="M28.5678 10.3353C28.7069 9.87188 28.5678 9.53125 27.9063 9.53125H25.7188C25.1625 9.53125 24.9063 9.82547 24.7672 10.15C24.7672 10.15 23.6547 12.8614 22.0788 14.6227C21.5689 15.1325 21.3372 15.2947 21.0591 15.2947C20.92 15.2947 20.7188 15.1325 20.7188 14.6691V10.3353C20.7188 9.77906 20.5573 9.53125 20.0938 9.53125H16.6563C16.3088 9.53125 16.0997 9.78938 16.0997 10.0341C16.0997 10.5614 16.8875 10.683 16.9688 12.1661V15.3875C16.9688 16.0937 16.8413 16.2219 16.5631 16.2219C15.8216 16.2219 14.0178 13.4981 12.9478 10.3817C12.7381 9.77594 12.5278 9.53125 11.9688 9.53125H9.78125C9.15625 9.53125 9.03125 9.82547 9.03125 10.15C9.03125 10.7294 9.77297 13.6031 12.4844 17.4037C14.292 19.9992 16.8388 21.4062 19.1563 21.4062C20.5469 21.4062 20.7188 21.0937 20.7188 20.5555V18.5937C20.7188 17.9687 20.8505 17.8441 21.2908 17.8441C21.6153 17.8441 22.1714 18.0062 23.4694 19.2576C24.9525 20.7409 25.1969 21.4062 26.0313 21.4062H28.2188C28.8438 21.4062 29.1563 21.0937 28.9759 20.477C28.7788 19.8623 28.0706 18.9708 27.1309 17.9136C26.6211 17.3109 25.8563 16.662 25.6247 16.3376C25.3002 15.9205 25.3928 15.735 25.6247 15.3642C25.6247 15.3642 28.2897 11.61 28.5678 10.3353Z" fill="white"/>
</g>
<defs>
<filter id="filter0_d_15_206" x="0" y="0" width="38" height="38" filterUnits="userSpaceOnUse" color-interpolation-filters="sRGB">
<feFlood flood-opacity="0" result="BackgroundImageFix"/>
<feColorMatrix in="SourceAlpha" type="matrix" values="0 0 0 0 0 0 0 0 0 0 0 0 0 0 0 0 0 0 127 0" result="hardAlpha"/>
<feOffset dy="4"/>
<feGaussianBlur stdDeviation="2"/>
<feComposite in2="hardAlpha" operator="out"/>
<feColorMatrix type="matrix" values="0 0 0 0 0 0 0 0 0 0 0 0 0 0 0 0 0 0 0.25 0"/>
<feBlend mode="normal" in2="BackgroundImageFix" result="effect1_dropShadow_15_206"/>
<feBlend mode="normal" in="SourceGraphic" in2="effect1_dropShadow_15_206" result="shape"/>
</filter>
</defs>
</svg>
